<svg width="37" height="37" viewBox="0 0 37 37" fill="none" xmlns="http://www.w3.org/2000/svg">
<rect width="37" height="37" rx="18.5" fill="url(#paint0_linear_643_22680)"/>
<rect width="37" height="37" rx="18.5" fill="url(#paint1_linear_643_22680)"/>
<path d="M25.6588 11.8187C25.6588 12.4776 25.1246 13.0118 24.4656 13.0118C23.8067 13.0118 23.2725 12.4776 23.2725 11.8187C23.2725 11.1597 23.8067 10.6255 24.4656 10.6255C25.1246 10.6255 25.6588 11.1597 25.6588 11.8187Z" fill="white"/>
<circle cx="18.3809" cy="18.5003" r="5.07096" stroke="white" stroke-width="1.78975"/>
<path d="M8 13.3692C8 10.4039 10.4039 8 13.3692 8H23.5112C26.4765 8 28.8804 10.4039 28.8804 13.3692V23.5112C28.8804 26.4765 26.4765 28.8804 23.5112 28.8804H13.3692C10.4039 28.8804 8 26.4765 8 23.5112V13.3692Z" stroke="white" stroke-width="1.78975"/>
<defs>
<linearGradient id="paint0_linear_643_22680" x1="-4.12692" y1="-5.12308" x2="9.67692" y2="21.9154" gradientUnits="userSpaceOnUse">
<stop stop-color="#D9D9D9"/>
<stop offset="0.0001" stop-color="#1F0CF8"/>
<stop offset="0.868122" stop-color="#ED1389"/>
</linearGradient>
<linearGradient id="paint1_linear_643_22680" x1="1.28077" y1="36.0038" x2="16.3654" y2="-1.99231" gradientUnits="userSpaceOnUse">
<stop stop-color="#FC2C46"/>
<stop offset="0.0001" stop-color="#FBAB48"/>
<stop offset="0.39864" stop-color="#FC3746"/>
<stop offset="0.85431" stop-color="#FC2C46" stop-opacity="0"/>
</linearGradient>
</defs>
</svg>
