<svg width="101" height="100" viewBox="0 0 101 100" fill="none" xmlns="http://www.w3.org/2000/svg">
<path d="M50.647 17.0374C49.5619 17.0374 48.686 16.1375 48.686 15.0226V8.23952C48.686 7.12467 49.5619 6.22473 50.647 6.22473C51.732 6.22473 52.6079 7.12467 52.6079 8.23952V15.0226C52.6079 16.1375 51.732 17.0374 50.647 17.0374Z" fill="black"/>
<path d="M65.0269 18.1252C64.7001 18.1252 64.3602 18.0446 64.0464 17.8565C63.1052 17.3058 62.7914 16.0701 63.3274 15.103L66.6348 9.21982C67.1708 8.25272 68.3735 7.93036 69.3148 8.48106C70.256 9.03177 70.5698 10.2675 70.0338 11.2346L66.7264 17.1178C66.3603 17.7625 65.7067 18.1252 65.0269 18.1252Z" fill="black"/>
<path d="M36.2669 18.1256C35.5871 18.1256 34.9335 17.763 34.5675 17.1182L31.26 11.2351C30.724 10.268 31.0378 9.04568 31.979 8.48154C32.9203 7.9174 34.1099 8.2532 34.659 9.22029L37.9664 15.1035C38.5024 16.0706 38.1886 17.2929 37.2474 17.857C36.9337 18.045 36.6068 18.1256 36.2669 18.1256Z" fill="black"/>
<path d="M50.4905 93.3706C49.9938 93.3706 49.4839 93.1691 49.1048 92.7796L7.07554 49.6766C6.31731 48.8976 6.30424 47.6215 7.07554 46.829L30.5805 22.3696C30.9466 21.98 31.4564 21.7651 31.9793 21.7651H69.0148C69.5377 21.7651 70.0475 21.98 70.4136 22.3696L93.9316 46.829C94.6899 47.6215 94.6899 48.8841 93.9316 49.6766L51.9024 92.7796C51.5233 93.1691 51.0134 93.3706 50.5167 93.3706H50.4905ZM11.2327 48.2394L50.5036 88.5082L89.7745 48.2394L68.2043 25.8081H32.8029L11.2327 48.2394Z" fill="black"/>
<path d="M92.5325 50.2677H8.46093C7.37588 50.2677 6.5 49.3544 6.5 48.2529C6.5 47.1515 7.37588 46.2382 8.46093 46.2382H92.5325C93.6176 46.2382 94.4935 47.1381 94.4935 48.2529C94.4935 49.3678 93.6176 50.2677 92.5325 50.2677Z" fill="black"/>
<path d="M69.0144 49.234C68.4392 49.234 67.8771 48.9653 67.498 48.4952L50.5032 27.0042L33.5085 48.4952C32.9856 49.1534 32.1097 49.4086 31.3254 49.1265C30.541 48.8444 30.0181 48.0788 30.0181 47.2326V23.794C30.0181 22.6791 30.8939 21.7792 31.979 21.7792C33.064 21.7792 33.9399 22.6791 33.9399 23.794V41.5375L48.9737 22.5179C49.7189 21.5777 51.2745 21.5777 52.0197 22.5179L67.0535 41.5375V23.794C67.0535 22.6791 67.9294 21.7792 69.0144 21.7792C70.0995 21.7792 70.9754 22.6791 70.9754 23.794V47.2192C70.9754 48.0654 70.4524 48.831 69.6681 49.1131C69.4589 49.1937 69.2367 49.234 69.0144 49.234Z" fill="black"/>
<path d="M50.4898 93.3706C49.7054 93.3706 48.9995 92.8871 48.6857 92.1483L30.1615 48.0111C29.7301 46.9903 30.1876 45.8083 31.1812 45.365C32.1747 44.9218 33.3251 45.3919 33.7565 46.4127L50.4767 86.2517L67.1969 46.4127C67.6283 45.3919 68.7787 44.9218 69.7723 45.365C70.7658 45.8083 71.2234 46.9903 70.792 48.0111L52.2677 92.1483C51.954 92.8871 51.248 93.3706 50.4637 93.3706H50.4898Z" fill="black"/>
</svg>
