<svg width="100" height="100" viewBox="0 0 100 100" fill="none" xmlns="http://www.w3.org/2000/svg">
<path d="M83.0999 82.9538H15.8999C14.8273 82.9538 13.9614 82.088 13.9614 81.0154V25.4462C13.9614 15.8314 21.7928 8 31.4076 8H67.5922C77.207 8 85.0384 15.8314 85.0384 25.4462V81.0154C85.0384 82.088 84.1725 82.9538 83.0999 82.9538ZM17.8383 79.0769H81.1614V25.4462C81.1614 17.9637 75.0747 11.8769 67.5922 11.8769H31.4076C23.9251 11.8769 17.8383 17.9637 17.8383 25.4462V79.0769Z" fill="black"/>
<path d="M77.9309 55.8152H21.0693C19.9967 55.8152 19.1309 54.9494 19.1309 53.8767V26.7383C19.1309 24.2441 21.1598 22.2152 23.6539 22.2152H75.3462C77.8404 22.2152 79.8693 24.2441 79.8693 26.7383V53.8767C79.8693 54.9494 79.0035 55.8152 77.9309 55.8152ZM23.0078 51.9383H75.9924V26.7383C75.9924 26.3764 75.7081 26.0921 75.3462 26.0921H23.6539C23.2921 26.0921 23.0078 26.3764 23.0078 26.7383V51.9383Z" fill="black"/>
<path d="M31.4078 91.9999H23.6539C21.1598 91.9999 19.1309 89.9709 19.1309 87.4768V81.0152C19.1309 79.9426 19.9967 79.0768 21.0693 79.0768C22.1419 79.0768 23.0078 79.9426 23.0078 81.0152V87.4768C23.0078 87.8386 23.2921 88.1229 23.6539 88.1229H31.4078C31.7696 88.1229 32.0539 87.8386 32.0539 87.4768V81.0152C32.0539 79.9426 32.9198 79.0768 33.9924 79.0768C35.065 79.0768 35.9309 79.9426 35.9309 81.0152V87.4768C35.9309 89.9709 33.9019 91.9999 31.4078 91.9999Z" fill="black"/>
<path d="M75.3463 92H67.5924C65.0983 92 63.0693 89.9711 63.0693 87.4769V81.0154C63.0693 79.9428 63.9352 79.0769 65.0078 79.0769C66.0804 79.0769 66.9463 79.9428 66.9463 81.0154V87.4769C66.9463 87.8387 67.2306 88.1231 67.5924 88.1231H75.3463C75.7081 88.1231 75.9924 87.8387 75.9924 87.4769V81.0154C75.9924 79.9428 76.8583 79.0769 77.9309 79.0769C79.0035 79.0769 79.8693 79.9428 79.8693 81.0154V87.4769C79.8693 89.9711 77.8404 92 75.3463 92Z" fill="black"/>
<path d="M15.9 45.4768H12.0231C9.52892 45.4768 7.5 43.4478 7.5 40.9537V33.1998C7.5 30.7057 9.52892 28.6768 12.0231 28.6768H15.9C16.9726 28.6768 17.8385 29.5426 17.8385 30.6152C17.8385 31.6878 16.9726 32.5537 15.9 32.5537H12.0231C11.6612 32.5537 11.3769 32.838 11.3769 33.1998V40.9537C11.3769 41.3155 11.6612 41.5998 12.0231 41.5998H15.9C16.9726 41.5998 17.8385 42.4657 17.8385 43.5383C17.8385 44.6109 16.9726 45.4768 15.9 45.4768Z" fill="black"/>
<path d="M86.977 45.4768H83.1001C82.0275 45.4768 81.1616 44.6109 81.1616 43.5383C81.1616 42.4657 82.0275 41.5998 83.1001 41.5998H86.977C87.3389 41.5998 87.6232 41.3155 87.6232 40.9537V33.1998C87.6232 32.838 87.3389 32.5537 86.977 32.5537H83.1001C82.0275 32.5537 81.1616 31.6878 81.1616 30.6152C81.1616 29.5426 82.0275 28.6768 83.1001 28.6768H86.977C89.4712 28.6768 91.5001 30.7057 91.5001 33.1998V40.9537C91.5001 43.4478 89.4712 45.4768 86.977 45.4768Z" fill="black"/>
<path d="M81.8078 75.2002H17.1924C16.1198 75.2002 15.2539 74.3343 15.2539 73.2617C15.2539 72.1891 16.1198 71.3232 17.1924 71.3232H81.8078C82.8804 71.3232 83.7462 72.1891 83.7462 73.2617C83.7462 74.3343 82.8804 75.2002 81.8078 75.2002Z" fill="black"/>
<path d="M36.577 68.7385H21.0693C19.9967 68.7385 19.1309 67.8726 19.1309 66.8V60.3385C19.1309 59.2659 19.9967 58.4 21.0693 58.4H31.4078C35.3235 58.4 38.5155 61.592 38.5155 65.5077V66.8C38.5155 67.8726 37.6496 68.7385 36.577 68.7385ZM23.0078 64.8616H34.5739C34.2767 63.3883 32.9715 62.2769 31.4078 62.2769H23.0078V64.8616Z" fill="black"/>
<path d="M77.931 68.7386H62.4233C61.3507 68.7386 60.4849 67.8728 60.4849 66.8001V65.5078C60.4849 61.5921 63.6769 58.4001 67.5926 58.4001H77.931C79.0036 58.4001 79.8695 59.266 79.8695 60.3386V66.8001C79.8695 67.8728 79.0036 68.7386 77.931 68.7386ZM64.4264 64.8617H75.9926V62.2771H67.5926C66.0289 62.2771 64.7236 63.3885 64.4264 64.8617Z" fill="black"/>
<path d="M55.7417 18.7651H43.2451C42.1725 18.7651 41.3066 17.8993 41.3066 16.8266C41.3066 15.754 42.1725 14.8882 43.2451 14.8882H55.7417C56.8143 14.8882 57.6802 15.754 57.6802 16.8266C57.6802 17.8993 56.8143 18.7651 55.7417 18.7651Z" fill="black"/>
<path d="M49.5 55.8153C48.4274 55.8153 47.5615 54.9494 47.5615 53.8768V24.5802C47.5615 23.5076 48.4274 22.6417 49.5 22.6417C50.5726 22.6417 51.4384 23.5076 51.4384 24.5802V53.8768C51.4384 54.9494 50.5726 55.8153 49.5 55.8153Z" fill="black"/>
<path d="M59.3216 54.9496C58.9339 54.9496 58.5591 54.8333 58.2231 54.6007C57.3443 53.9933 57.1246 52.7785 57.732 51.8997L68.497 36.392C69.1043 35.5133 70.3191 35.2936 71.1979 35.901C72.0766 36.5084 72.2963 37.7231 71.6889 38.6019L60.924 54.1096C60.5493 54.6524 59.9419 54.9367 59.3345 54.9367L59.3216 54.9496Z" fill="black"/>
<path d="M30.8904 54.9496C30.5027 54.9496 30.128 54.8333 29.792 54.6007C28.9132 53.9933 28.6935 52.7785 29.3009 51.8997L40.0658 36.392C40.6732 35.5133 41.888 35.2936 42.7667 35.901C43.6455 36.5084 43.8652 37.7231 43.2578 38.6019L32.4929 54.1096C32.1181 54.6524 31.5107 54.9367 30.9033 54.9367L30.8904 54.9496Z" fill="black"/>
</svg>
