<svg width="101" height="100" viewBox="0 0 101 100" fill="none" xmlns="http://www.w3.org/2000/svg">
<path d="M82.9404 88.9999H17.2737C16.6534 88.9999 16.0594 88.7131 15.6766 88.2047C15.307 87.7092 15.1882 87.0704 15.373 86.4707L18.6861 75.6891C18.9368 74.8678 19.7024 74.2942 20.5868 74.2942H78.5451C79.3502 74.2942 80.0762 74.7766 80.3798 75.5197L84.7883 86.3012C85.0391 86.9009 84.9599 87.5919 84.5904 88.1264C84.2208 88.6609 83.6004 88.9869 82.9536 88.9869L82.9404 88.9999ZM19.94 85.0888H80.0102L77.1987 78.2183H22.0519L19.94 85.0888Z" fill="black"/>
<path d="M49.7836 25.3406C45.7842 25.3406 42.5239 22.1204 42.5239 18.1702C42.5239 14.22 45.7842 10.9999 49.7836 10.9999C53.783 10.9999 57.0432 14.22 57.0432 18.1702C57.0432 22.1204 53.783 25.3406 49.7836 25.3406ZM49.7836 14.911C47.9621 14.911 46.4837 16.3711 46.4837 18.1702C46.4837 19.9693 47.9621 21.4295 49.7836 21.4295C51.6051 21.4295 53.0834 19.9693 53.0834 18.1702C53.0834 16.3711 51.6051 14.911 49.7836 14.911Z" fill="black"/>
<path d="M12.7596 44.8959C8.76024 44.8959 5.5 41.6757 5.5 37.7255C5.5 33.7753 8.76024 30.5552 12.7596 30.5552C16.759 30.5552 20.0193 33.7753 20.0193 37.7255C20.0193 41.6757 16.759 44.8959 12.7596 44.8959ZM12.7596 34.4663C10.9381 34.4663 9.4598 35.9264 9.4598 37.7255C9.4598 39.5246 10.9381 40.9848 12.7596 40.9848C14.5811 40.9848 16.0595 39.5246 16.0595 37.7255C16.0595 35.9264 14.5811 34.4663 12.7596 34.4663Z" fill="black"/>
<path d="M86.2401 44.8959C82.2407 44.8959 78.9805 41.6757 78.9805 37.7255C78.9805 33.7753 82.2407 30.5552 86.2401 30.5552C90.2395 30.5552 93.4997 33.7753 93.4997 37.7255C93.4997 41.6757 90.2395 44.8959 86.2401 44.8959ZM86.2401 34.4663C84.4186 34.4663 82.9403 35.9264 82.9403 37.7255C82.9403 39.5246 84.4186 40.9848 86.2401 40.9848C88.0616 40.9848 89.5399 39.5246 89.5399 37.7255C89.5399 35.9264 88.0616 34.4663 86.2401 34.4663Z" fill="black"/>
<path d="M78.5317 78.2182C78.4261 78.2182 78.3205 78.2182 78.2149 78.1922C77.1325 78.0227 76.3934 77.0188 76.5649 75.9498L81.5279 45.0391L65.1475 54.856C64.3292 55.3514 63.3392 55.4557 62.4285 55.1558C61.5045 54.856 60.7653 54.165 60.3958 53.2655L49.7571 27.2176L39.1184 53.2524C38.7488 54.152 38.0097 54.8429 37.0989 55.1428C36.1882 55.4426 35.1982 55.3253 34.3799 54.8429L17.9863 45.0261L22.5268 75.9759C22.6852 77.0449 21.9329 78.0357 20.8505 78.1922C19.755 78.3486 18.765 77.6055 18.6066 76.5365L13.9605 44.8305C13.5249 43.5529 13.8945 42.158 14.924 41.2584C16.0064 40.3197 17.5507 40.1894 18.7782 40.9194L35.7394 51.0883L46.708 24.2451C47.2228 22.9936 48.4108 22.1853 49.7571 22.1853C51.1034 22.1853 52.3046 22.9936 52.8061 24.2451L63.7748 51.0883L80.7359 40.9194C81.9635 40.1894 83.5078 40.3197 84.5901 41.2584C85.6197 42.158 85.9893 43.5659 85.5537 44.8436L80.4588 76.5495C80.3004 77.5142 79.4688 78.1922 78.5053 78.1922L78.5317 78.2182Z" fill="black"/>
<path d="M78.9811 69.5489H20.2441C19.1485 69.5489 18.2642 68.6754 18.2642 67.5934C18.2642 66.5113 19.1485 65.6378 20.2441 65.6378H78.9811C80.0767 65.6378 80.961 66.5113 80.961 67.5934C80.961 68.6754 80.0767 69.5489 78.9811 69.5489Z" fill="black"/>
</svg>
