<svg width="101" height="100" viewBox="0 0 101 100" fill="none" xmlns="http://www.w3.org/2000/svg">
<path d="M32.0455 56.0909C19.0636 56.0909 8.5 45.5273 8.5 32.5455C8.5 19.5636 19.0636 9 32.0455 9C45.0273 9 55.5909 19.5636 55.5909 32.5455C55.5909 45.5273 45.0273 56.0909 32.0455 56.0909ZM32.0455 12.8182C21.1636 12.8182 12.3182 21.6636 12.3182 32.5455C12.3182 43.4273 21.1636 52.2727 32.0455 52.2727C42.9273 52.2727 51.7727 43.4273 51.7727 32.5455C51.7727 21.6636 42.9273 12.8182 32.0455 12.8182Z" fill="black"/>
<path d="M27.8581 41.4419C27.0944 41.4419 26.3944 40.9837 26.1017 40.271L20.8453 27.6456C20.4381 26.6783 20.8963 25.5583 21.8763 25.151C22.8435 24.7437 23.9635 25.2019 24.3708 26.1819L27.7817 34.3656L30.849 26.2456C31.129 25.5074 31.829 25.0237 32.6181 25.011C33.4453 25.011 34.1199 25.4819 34.4126 26.2074L37.6708 34.2637L40.649 26.2583C41.0181 25.2656 42.1126 24.7692 43.1053 25.1383C44.0981 25.5074 44.5944 26.6019 44.2253 27.5946L39.529 40.2201C39.249 40.9583 38.549 41.4546 37.7726 41.4674C36.9326 41.5183 36.2708 41.0092 35.9781 40.271L32.6944 32.1765L29.6526 40.2328C29.3726 40.971 28.6853 41.4546 27.8963 41.4674H27.8708L27.8581 41.4419Z" fill="black"/>
<path d="M44.4801 34.6075H20.2983C19.2419 34.6075 18.3892 33.7548 18.3892 32.6984C18.3892 31.642 19.2419 30.7893 20.2983 30.7893H44.4801C45.5364 30.7893 46.3892 31.642 46.3892 32.6984C46.3892 33.7548 45.5364 34.6075 44.4801 34.6075Z" fill="black"/>
<path d="M68.9541 91.9439C55.9723 91.9439 45.4087 81.3803 45.4087 68.3985C45.4087 55.4167 55.9723 44.853 68.9541 44.853C81.936 44.853 92.4996 55.4167 92.4996 68.3985C92.4996 81.3803 81.936 91.9439 68.9541 91.9439ZM68.9541 48.6712C58.0723 48.6712 49.2269 57.5167 49.2269 68.3985C49.2269 79.2803 58.0723 88.1258 68.9541 88.1258C79.836 88.1258 88.6814 79.2803 88.6814 68.3985C88.6814 57.5167 79.836 48.6712 68.9541 48.6712Z" fill="black"/>
<path d="M68.8653 79.0888C68.3689 79.0888 67.8726 79.0379 67.3762 78.9361L62.5271 77.9179C61.4962 77.7015 60.8344 76.6961 61.0508 75.6525C61.2671 74.6215 62.2726 73.9597 63.3162 74.1761L68.1653 75.1943C69.6544 75.4997 70.9144 74.7997 71.4617 74.0106C72.0217 73.1961 71.6653 72.6234 71.5508 72.4325C71.2326 71.9361 70.7108 71.5415 70.0235 71.2997L66.3198 69.9761C65.1998 69.5815 64.2708 68.9706 63.5326 68.1688C61.8653 66.3488 61.6362 63.9179 62.9598 61.8179C64.3471 59.6161 67.5289 57.9234 70.9526 58.967L74.1471 59.9343C75.1526 60.2397 75.7253 61.3088 75.4198 62.3143C75.1144 63.3197 74.0453 63.8924 73.0398 63.587L69.8453 62.6197C68.2798 62.1488 66.8035 62.8997 66.2053 63.8543C65.6708 64.6943 66.0398 65.2415 66.3453 65.5852C66.6635 65.9288 67.0962 66.1961 67.618 66.387L71.3089 67.7106C72.798 68.2452 73.9944 69.1743 74.7708 70.3961C75.9162 72.2161 75.8526 74.3797 74.5926 76.187C73.3198 78.0197 71.1307 79.0888 68.8526 79.0888H68.8653Z" fill="black"/>
<path d="M68.6615 81.6982C67.6052 81.6982 66.7524 80.8455 66.7524 79.7891V58.1527C66.7524 57.0964 67.6052 56.2437 68.6615 56.2437C69.7179 56.2437 70.5706 57.0964 70.5706 58.1527V79.7891C70.5706 80.8455 69.7179 81.6982 68.6615 81.6982Z" fill="black"/>
<path d="M39.2875 86.2671C38.6639 86.2671 38.053 85.9617 37.6839 85.4017C37.1112 84.5235 37.353 83.3399 38.2439 82.7544L40.4839 81.2908C29.6275 77.6635 21.4312 68.5635 19.0639 57.1217C18.8475 56.0908 19.5094 55.0853 20.553 54.869C21.5839 54.6526 22.5894 55.3144 22.8057 56.3581C25.1603 67.749 34.0694 76.5053 45.4985 78.669C46.2621 78.809 46.8603 79.4071 47.013 80.1708C47.1657 80.9344 46.8348 81.7108 46.1857 82.1435L40.3312 85.9617C40.013 86.1781 39.6439 86.2671 39.2875 86.2671Z" fill="black"/>
<path d="M80.6252 45.591C79.7597 45.591 78.9706 44.9928 78.767 44.1019C76.2724 33.1947 67.5797 24.6928 56.6215 22.4528C55.8324 22.2874 55.2343 21.651 55.1197 20.8619C55.0052 20.0728 55.3997 19.2837 56.1124 18.9019L61.8397 15.8474C62.7688 15.351 63.927 15.6947 64.4233 16.6365C64.9197 17.5656 64.5761 18.7237 63.6343 19.2201L62.0688 20.0601C72.2506 23.8019 80.027 32.4947 82.4961 43.2619C82.7252 44.2928 82.0888 45.311 81.0579 45.5528C80.9179 45.591 80.7779 45.6037 80.6252 45.6037V45.591Z" fill="black"/>
</svg>
