<svg width="100" height="100" viewBox="0 0 100 100" fill="none" xmlns="http://www.w3.org/2000/svg">
<path d="M89.4139 91.2316C89.2053 91.2316 89.0106 91.2036 88.8159 91.1477C88.5795 91.2036 88.3152 91.2316 88.0232 91.2316H10.9768C10.6848 91.2316 10.4205 91.1896 10.1841 91.1477C9.9894 91.2036 9.7947 91.2316 9.58609 91.2316C8.43179 91.2316 7.5 90.2946 7.5 89.1338V13.8947C7.5 9.47549 9.93377 9 10.9768 9H88.0232C89.0662 9 91.5 9.47549 91.5 13.8947V89.1338C91.5 90.2946 90.5682 91.2316 89.4139 91.2316ZM11.7 13.1955C11.6861 13.3633 11.6722 13.6011 11.6722 13.8947V87.0501H87.3278V13.8947C87.3278 13.6011 87.3139 13.3633 87.3 13.1955H11.7Z" fill="black"/>
<path d="M89.4139 31.0965H9.58609C8.43179 31.0965 7.5 30.1595 7.5 28.9987C7.5 27.838 8.43179 26.901 9.58609 26.901H89.4139C90.5682 26.901 91.5 27.838 91.5 28.9987C91.5 30.1595 90.5682 31.0965 89.4139 31.0965Z" fill="black"/>
<path d="M18.4588 24.0758C16.5952 24.0758 15.0654 22.5514 15.0654 20.6634C15.0654 18.7755 16.5813 17.2511 18.4588 17.2511C20.3363 17.2511 21.8522 18.7755 21.8522 20.6634C21.8522 22.5514 20.3363 24.0758 18.4588 24.0758ZM18.4588 19.8803C18.0277 19.8803 17.68 20.2299 17.68 20.6634C17.68 21.097 18.0277 21.4466 18.4588 21.4466C18.8899 21.4466 19.2376 21.097 19.2376 20.6634C19.2376 20.2299 18.8899 19.8803 18.4588 19.8803Z" fill="black"/>
<path d="M29.0281 24.0758C27.1646 24.0758 25.6348 22.5514 25.6348 20.6634C25.6348 18.7755 27.1507 17.2511 29.0281 17.2511C30.9056 17.2511 32.4215 18.7755 32.4215 20.6634C32.4215 22.5514 30.9056 24.0758 29.0281 24.0758ZM29.0281 19.8803C28.597 19.8803 28.2493 20.2299 28.2493 20.6634C28.2493 21.097 28.597 21.4466 29.0281 21.4466C29.4593 21.4466 29.807 21.097 29.807 20.6634C29.807 20.2299 29.4593 19.8803 29.0281 19.8803Z" fill="black"/>
<path d="M39.6121 24.0758C37.7486 24.0758 36.2188 22.5514 36.2188 20.6634C36.2188 18.7755 37.7346 17.2511 39.6121 17.2511C41.4896 17.2511 43.0055 18.7755 43.0055 20.6634C43.0055 22.5514 41.4896 24.0758 39.6121 24.0758ZM39.6121 19.8803C39.181 19.8803 38.8333 20.2299 38.8333 20.6634C38.8333 21.097 39.181 21.4466 39.6121 21.4466C40.0433 21.4466 40.3909 21.097 40.3909 20.6634C40.3909 20.2299 40.0433 19.8803 39.6121 19.8803Z" fill="black"/>
<path d="M63.7129 77.8479H37.1917C35.2725 77.8479 33.7148 76.2816 33.7148 74.3516V53.0246C33.7148 51.0946 35.2725 49.5283 37.1917 49.5283H63.7129C65.6321 49.5283 67.1897 51.0946 67.1897 53.0246V74.3516C67.1897 76.2816 65.6321 77.8479 63.7129 77.8479ZM37.887 73.6524H63.0175V53.7238H37.887V73.6524Z" fill="black"/>
<path d="M57.5381 53.724C56.3838 53.724 55.452 52.787 55.452 51.6262V47.6825C55.452 44.8995 53.199 42.6479 50.4454 42.6479C47.6918 42.6479 45.4388 44.9134 45.4388 47.6825V51.6262C45.4388 52.787 44.507 53.724 43.3527 53.724C42.1984 53.724 41.2666 52.787 41.2666 51.6262V47.6825C41.2666 42.5919 45.3832 38.4524 50.4454 38.4524C55.5077 38.4524 59.6242 42.5919 59.6242 47.6825V51.6262C59.6242 52.787 58.6924 53.724 57.5381 53.724Z" fill="black"/>
<path d="M50.4456 67.611C48.5264 67.611 46.9688 66.0447 46.9688 64.1148C46.9688 62.1848 48.5264 60.6185 50.4456 60.6185C52.3648 60.6185 53.9224 62.1848 53.9224 64.1148C53.9224 66.0447 52.3648 67.611 50.4456 67.611ZM50.4456 63.4155C50.0562 63.4155 49.7502 63.7232 49.7502 64.1148C49.7502 64.5063 50.0562 64.814 50.4456 64.814C50.835 64.814 51.1409 64.5063 51.1409 64.1148C51.1409 63.7232 50.835 63.4155 50.4456 63.4155Z" fill="black"/>
<path d="M34.6889 62.017H23.1042C21.9499 62.017 21.0181 61.08 21.0181 59.9193C21.0181 58.7585 21.9499 57.8215 23.1042 57.8215H34.6889C35.8432 57.8215 36.775 58.7585 36.775 59.9193C36.775 61.08 35.8432 62.017 34.6889 62.017Z" fill="black"/>
<path d="M78.2602 62.017H66.6754C65.5211 62.017 64.5894 61.08 64.5894 59.9193C64.5894 58.7585 65.5211 57.8215 66.6754 57.8215H78.2602C79.4145 57.8215 80.3463 58.7585 80.3463 59.9193C80.3463 61.08 79.4145 62.017 78.2602 62.017Z" fill="black"/>
</svg>
