<svg width="101" height="100" viewBox="0 0 101 100" fill="none" xmlns="http://www.w3.org/2000/svg">
<path d="M74.7638 59.982H69.1279C68.0061 59.982 67.1006 59.0856 67.1006 57.975C67.1006 56.8644 68.0061 55.968 69.1279 55.968H74.7638C74.8989 55.968 75.0206 55.8342 75.0206 55.687V12.295C75.0206 12.1479 74.8989 12.0141 74.7638 12.0141H13.1473C13.0122 12.0141 12.8905 12.1479 12.8905 12.295V55.7004C12.8905 55.8476 13.0122 55.9814 13.1473 55.9814H54.68C55.8017 55.9814 56.7073 56.8778 56.7073 57.9884C56.7073 59.0989 55.8017 59.9954 54.68 59.9954H13.1473C10.7686 59.9954 8.83594 58.0687 8.83594 55.7004V12.295C8.83594 9.92675 10.7686 8 13.1473 8H74.7638C77.1425 8 79.0752 9.92675 79.0752 12.295V55.7004C79.0752 58.0687 77.1425 59.9954 74.7638 59.9954V59.982Z" fill="black"/>
<path d="M68.7764 50.6293H63.3432C62.2214 50.6293 61.3159 49.7328 61.3159 48.6223C61.3159 47.5117 62.2214 46.6152 63.3432 46.6152H68.7764C69.8982 46.6152 70.8037 47.5117 70.8037 48.6223C70.8037 49.7328 69.8982 50.6293 68.7764 50.6293Z" fill="black"/>
<path d="M50.6117 50.6293H39.2182C38.0964 50.6293 37.1909 49.7328 37.1909 48.6223C37.1909 47.5117 38.0964 46.6152 39.2182 46.6152H50.6117C51.7334 46.6152 52.639 47.5117 52.639 48.6223C52.639 49.7328 51.7334 50.6293 50.6117 50.6293Z" fill="black"/>
<path d="M30.9606 50.6293H19.1347C18.0129 50.6293 17.1074 49.7328 17.1074 48.6223C17.1074 47.5117 18.0129 46.6152 19.1347 46.6152H30.9606C32.0824 46.6152 32.988 47.5117 32.988 48.6223C32.988 49.7328 32.0824 50.6293 30.9606 50.6293Z" fill="black"/>
<path d="M30.9606 44.7822H19.1347C18.0129 44.7822 17.1074 43.8858 17.1074 42.7752C17.1074 41.6647 18.0129 40.7682 19.1347 40.7682H30.9606C32.0824 40.7682 32.988 41.6647 32.988 42.7752C32.988 43.8858 32.0824 44.7822 30.9606 44.7822Z" fill="black"/>
<path d="M55.6802 33.4222C52.9771 33.4222 50.3552 32.0039 48.9766 29.4885C46.9628 25.8357 48.3279 21.2329 52.0175 19.2392C53.8016 18.2759 55.8694 18.0618 57.8156 18.6237C59.7754 19.1991 61.3837 20.4836 62.3568 22.2498C63.3299 24.016 63.5461 26.0631 62.9785 27.9899C62.4108 29.93 61.0999 31.5222 59.3158 32.4856C58.1535 33.1145 56.9101 33.4089 55.6802 33.4089V33.4222ZM55.6667 22.3301C55.072 22.3301 54.4909 22.4772 53.9638 22.7582C53.1258 23.2132 52.5176 23.9624 52.2473 24.8589C51.977 25.7554 52.0851 26.7188 52.5446 27.5483C53.0042 28.3779 53.761 28.98 54.6666 29.2476C55.5856 29.5152 56.5452 29.4082 57.3831 28.9533C58.2211 28.4983 58.8293 27.749 59.0996 26.8526C59.3699 25.9427 59.2618 24.9927 58.8158 24.1631C58.3562 23.3336 57.5994 22.7315 56.6939 22.4639C56.356 22.3702 56.0181 22.3167 55.6802 22.3167L55.6667 22.3301Z" fill="black"/>
<path d="M63.5733 33.4223C62.9651 33.4223 62.3704 33.3554 61.7622 33.2082C61.6947 33.2082 60.8297 33.0075 59.8025 32.4322C58.8294 31.8836 58.478 30.666 59.0321 29.7026C59.5863 28.7393 60.8162 28.3914 61.7893 28.94C62.2623 29.2076 62.6543 29.2879 62.6543 29.3012C63.5733 29.5153 64.4923 29.4083 65.2762 28.9801C66.1142 28.5252 66.7224 27.7759 66.9927 26.8794C67.263 25.9696 67.1549 25.0196 66.7089 24.19C65.979 22.852 64.4383 22.1295 62.9381 22.3971L61.6406 22.8921C60.5999 23.2935 59.4241 22.7851 59.0186 21.7548C58.6132 20.7245 59.1267 19.5605 60.1674 19.159L61.6271 18.5971C61.7217 18.5569 61.8298 18.5302 61.9244 18.5034C65.2222 17.7809 68.6416 19.333 70.2634 22.2633C71.2365 24.0294 71.4527 26.0766 70.8851 28.0034C70.3175 29.9435 69.0065 31.5357 67.2224 32.4991C66.0872 33.1146 64.8437 33.4223 63.5733 33.4223Z" fill="black"/>
<path d="M77.3858 92.4023C77.2101 92.4023 77.0344 92.3755 76.8452 92.3354C71.331 90.8502 61.9783 86.2073 60.789 71.8771L49.6253 52.5427C48.6522 50.6294 48.5036 48.5688 49.1388 46.6421C49.7875 44.7153 51.1526 43.1498 52.9771 42.24C54.8152 41.3301 56.8966 41.1829 58.8428 41.8118C60.789 42.4541 62.3703 43.8055 63.2893 45.6118L72.2906 60.9187C72.8582 61.8821 72.5203 63.0997 71.5607 63.6617C70.6011 64.2236 69.3577 63.8891 68.7901 62.9391L59.7213 47.5251C59.2212 46.5618 58.4779 45.9195 57.5588 45.6252C56.6398 45.3174 55.6532 45.3977 54.7882 45.8259C53.9232 46.254 53.2745 46.9899 52.9771 47.8998C52.6663 48.8096 52.7474 49.7864 53.1799 50.6427L64.5192 70.2715C64.6679 70.5391 64.7625 70.8334 64.776 71.1278C65.5869 82.7418 72.3581 86.9566 77.8994 88.4551C78.9806 88.7495 79.6159 89.8467 79.3185 90.9171C79.0753 91.8136 78.2508 92.4023 77.3588 92.4023H77.3858Z" fill="black"/>
<path d="M91.6308 91.7068C90.5091 91.7068 89.6035 90.8103 89.6035 89.6997V55.0852C89.7252 48.8634 88.698 45.2909 85.9274 42.2937L75.926 32.1114C75.1421 31.322 75.1692 30.0509 75.9666 29.2748C76.764 28.4988 78.0479 28.5121 78.8318 29.315L88.8872 39.5374C93.2797 44.2874 93.7798 49.8402 93.6717 55.1253V89.6997C93.6717 90.8103 92.7661 91.7068 91.6444 91.7068H91.6308Z" fill="black"/>
</svg>
